<svg xmlns="http://www.w3.org/2000/svg" viewBox="0 0 53.25 24.25"><defs><style>.cls-1{fill:none;stroke:#333;stroke-miterlimit:10;stroke-width:0.25px;}</style></defs><g id="Layer_2" data-name="Layer 2"><g id="Layer_1-2" data-name="Layer 1"><path class="cls-1" d="M15.9,6.62h9.72v-6H12.12a11.5,11.5,0,0,0,0,23h13.5v-6H15.9c-6.28,0-8.28-2.46-8.28-5.5S9.62,6.62,15.9,6.62Z"/><path class="cls-1" d="M26.12,24.12h-14a12,12,0,0,1,0-24h14v7H15.9c-5.16,0-7.78,1.69-7.78,5s2.62,5,7.78,5H26.12Zm-14-23a11,11,0,0,0,0,22h13v-5H15.9c-7.25,0-8.78-3.26-8.78-6s1.53-6,8.78-6h9.22v-5Z"/><path class="cls-1" d="M41.12.62H27.62v23h13.5a11.5,11.5,0,0,0,0-23Zm-3.78,17H33.62v-11h3.72c6.28,0,8.28,2.46,8.28,5.5S43.62,17.62,37.34,17.62Z"/><path class="cls-1" d="M41.12,24.12h-14V.12h14a12,12,0,0,1,0,24Zm-13-1h13a11,11,0,0,0,0-22h-13Zm9.22-5H33.12v-12h4.22c7.26,0,8.78,3.27,8.78,6S44.6,18.12,37.34,18.12Zm-3.22-1h3.22c5.17,0,7.78-1.68,7.78-5s-2.61-5-7.78-5H34.12Z"/></g></g></svg>