<svg xmlns="http://www.w3.org/2000/svg" viewBox="0 0 131.75 25.3"><defs><style>.cls-1{fill:none;stroke:#4d4d4d;stroke-miterlimit:10;stroke-width:0.25px;}</style></defs><g id="Layer_2" data-name="Layer 2"><g id="Layer_1-2" data-name="Layer 1"><path class="cls-1" d="M15.9,7.17h9.72v-6H12.12a11.5,11.5,0,0,0,0,23h13.5v-6H15.9c-6.28,0-8.28-2.46-8.28-5.5S9.62,7.17,15.9,7.17Z"/><path class="cls-1" d="M26.12,24.67h-14a12,12,0,0,1,0-24h14v7H15.91c-5.17,0-7.79,1.68-7.79,5s2.62,5,7.79,5H26.12Zm-14-23a11,11,0,0,0,0,22h13v-5H15.91c-7.26,0-8.79-3.26-8.79-6s1.53-6,8.79-6h9.21v-5Z"/><path class="cls-1" d="M119.62,1.67h-13.5v23h13.5a11.5,11.5,0,0,0,0-23Zm-3.78,17h-3.72v-11h3.72c6.28,0,8.28,2.46,8.28,5.5S122.12,18.67,115.84,18.67Z"/><path class="cls-1" d="M119.62,25.17h-14v-24h14a12,12,0,0,1,0,24Zm-13-1h13a11,11,0,0,0,0-22h-13Zm9.22-5h-4.22v-12h4.22c7.26,0,8.78,3.26,8.78,6S123.1,19.17,115.84,19.17Zm-3.22-1h3.22c5.17,0,7.78-1.68,7.78-5s-2.61-5-7.78-5h-3.22Z"/><polygon class="cls-1" points="47.63 1.17 47.63 9.17 37.63 9.17 37.63 1.17 29.63 1.17 29.63 24.17 38.13 24.17 38.13 15.67 48.13 15.67 48.13 24.17 55.63 24.17 55.63 1.17 47.63 1.17"/><path class="cls-1" d="M56.12,24.67h-8.5v-8.5h-9v8.5h-9.5V.67h9v8h9v-8h9Zm-7.5-1h6.5v-22h-7v8h-11v-8h-7v22h7.5v-8.5h11Z"/><polygon class="cls-1" points="59.63 24.17 88.63 24.17 74.13 1.17 59.63 24.17"/><path class="cls-1" d="M89.53,24.67H58.72L74.12.23Zm-29-1H87.72L74.12,2.11Z"/><polyline class="cls-1" points="74.13 12.17 66.56 24.17 81.69 24.17"/><polygon class="cls-1" points="81.69 24.67 65.65 24.67 73.7 11.9 74.55 12.44 67.47 23.67 81.69 23.67 81.69 24.67"/><rect class="cls-1" x="93.63" y="1.17" width="8" height="23"/><path class="cls-1" d="M102.12,24.67h-9V.67h9Zm-8-1h7v-22h-7Z"/></g></g></svg>