<svg xmlns="http://www.w3.org/2000/svg" viewBox="0 0 64.2 28.32"><defs><style>.cls-1{fill:#23321a;}</style></defs><g id="Layer_2" data-name="Layer 2"><g id="Layer_1-2" data-name="Layer 1"><path class="cls-1" d="M52.35,20.39c.53,1.07,1,1.89,1,1.62a6.81,6.81,0,0,0-.46-2.3s-1.61-4.82-2-5.45-1,1.64-1,1.64-1.27,3.87-1.42,4.21-.53,1.67-.53,1.67.27.72.72-.07,1.73-5.35,2-4.8c.1.18.36.73.68,1.4v0s.17.37,0,.42-.44.08-.6.15,0,.31.6.4,1,1.09,1,1.09"/><path class="cls-1" d="M52.35,20.39c.53,1.07,1,1.89,1,1.62a6.81,6.81,0,0,0-.46-2.3s-1.61-4.82-2-5.45-1,1.64-1,1.64-1.27,3.87-1.42,4.21-.53,1.67-.53,1.67.27.72.72-.07,1.73-5.35,2-4.8c.1.18.36.73.68,1.4v0s.17.37,0,.42-.44.08-.6.15,0,.31.6.4,1,1.09,1,1.09"/><path class="cls-1" d="M52.35,20.39c.53,1.07,1,1.89,1,1.62a6.81,6.81,0,0,0-.46-2.3s-1.61-4.82-2-5.45-1,1.64-1,1.64-1.27,3.87-1.42,4.21-.53,1.67-.53,1.67.27.72.72-.07,1.73-5.35,2-4.8c.1.18.36.73.68,1.4v0s.17.37,0,.42-.44.08-.6.15,0,.31.6.4,1,1.09,1,1.09"/><path class="cls-1" d="M41.51,14.65l5.1,5.52s.34.4.34-1.15V15.18s-.11-1.2.22-.87,0,7.55,0,7.55,0,.68-.84-.12-4.89-6.25-4.89-5.51v5.11s0,1.31-.4.68-.1-7.44-.1-7.44.08-.49.57.07"/><path class="cls-1" d="M41.51,14.65l5.1,5.52s.34.4.34-1.15V15.18s-.11-1.2.22-.87,0,7.55,0,7.55,0,.68-.84-.12-4.89-6.25-4.89-5.51v5.11s0,1.31-.4.68-.1-7.44-.1-7.44.08-.49.57.07"/><path class="cls-1" d="M41.51,14.65l5.1,5.52s.34.4.34-1.15V15.18s-.11-1.2.22-.87,0,7.55,0,7.55,0,.68-.84-.12-4.89-6.25-4.89-5.51v5.11s0,1.31-.4.68-.1-7.44-.1-7.44.08-.49.57.07"/><path class="cls-1" d="M24.51,14.51s-2.44-1-3.57,1.1,3,2.42,2.63,4.65c-.15.82-.88,1-1.75.83,0,0-1.11-.42-1.37-.3s.37.88,1.64,1.22,4.92-1.77,2-3.87c-2.39-1.72-1.68-3-.29-3.15s.72-.48.72-.48"/><path class="cls-1" d="M24.51,14.51s-2.44-1-3.57,1.1,3,2.42,2.63,4.65c-.15.82-.88,1-1.75.83,0,0-1.11-.42-1.37-.3s.37.88,1.64,1.22,4.92-1.77,2-3.87c-2.39-1.72-1.68-3-.29-3.15s.72-.48.72-.48"/><path class="cls-1" d="M24.51,14.51s-2.44-1-3.57,1.1,3,2.42,2.63,4.65c-.15.82-.88,1-1.75.83,0,0-1.11-.42-1.37-.3s.37.88,1.64,1.22,4.92-1.77,2-3.87c-2.39-1.72-1.68-3-.29-3.15s.72-.48.72-.48"/><path class="cls-1" d="M10.42,14.22a3.8,3.8,0,0,1,3.65,3.94,3.8,3.8,0,0,1-3.65,3.94,3.79,3.79,0,0,1-3.64-3.94,3.8,3.8,0,0,1,3.64-3.94M8.28,16.77a2.18,2.18,0,0,0-.26,1,2.7,2.7,0,0,0,1,2.62.77.77,0,0,0,.35.25,4,4,0,0,0,1.27.19,2.45,2.45,0,0,0,2.16-2.33v-.65a1.86,1.86,0,0,0,0-.33,2.11,2.11,0,0,0-.93-1.61,1,1,0,0,0-.4-.28l-.12-.05a1.61,1.61,0,0,0-.63-.12h-.07a4,4,0,0,0-.45,0,1.49,1.49,0,0,0-.4.06,1.88,1.88,0,0,0-1.46,1.1l-.05.14"/><path class="cls-1" d="M16.92,22.06a.25.25,0,0,1-.23-.25s0-3.89,0-5.09-.26-1.35-.47-1.41-2.13-.17-2.38-.59,1.51-.49,1.51-.49H19s1.77.06,1.51.49-2.17.53-2.38.59-.48.21-.47,1.41,0,5.09,0,5.09a.25.25,0,0,1-.23.25,4.19,4.19,0,0,1-.53,0"/><path class="cls-1" d="M16.92,22.06a.25.25,0,0,1-.23-.25s0-3.89,0-5.09-.26-1.35-.47-1.41-2.13-.17-2.38-.59,1.51-.49,1.51-.49H19s1.77.06,1.51.49-2.17.53-2.38.59-.48.21-.47,1.41,0,5.09,0,5.09a.25.25,0,0,1-.23.25,4.19,4.19,0,0,1-.53,0"/><path class="cls-1" d="M16.92,22.06a.25.25,0,0,1-.23-.25s0-3.89,0-5.09-.26-1.35-.47-1.41-2.13-.17-2.38-.59,1.51-.49,1.51-.49H19s1.77.06,1.51.49-2.17.53-2.38.59-.48.21-.47,1.41,0,5.09,0,5.09a.25.25,0,0,1-.23.25,4.19,4.19,0,0,1-.53,0"/><path class="cls-1" d="M32.75,21.85c-.31.54-.6.14-.6.14s-1.3-4.48-1.63-5.12-1.56,4-2,4.81-.73.06-.73.06L26.3,17.05s-.89-3-.33-2.79S27.22,17,27.5,18s.68,2.4.83,2.06,1.41-4.21,1.41-4.21.68-2.26,1-1.64,1.95,5.45,1.95,5.45.14.12.33-.51,1.05-3.11,1.05-3.11.55-1.94.78-1.83-.34,2.3-.63,3.22c0,0-1.19,3.87-1.49,4.41"/><path class="cls-1" d="M32.75,21.85c-.31.54-.6.14-.6.14s-1.3-4.48-1.63-5.12-1.56,4-2,4.81-.73.06-.73.06L26.3,17.05s-.89-3-.33-2.79S27.22,17,27.5,18s.68,2.4.83,2.06,1.41-4.21,1.41-4.21.68-2.26,1-1.64,1.95,5.45,1.95,5.45.14.12.33-.51,1.05-3.11,1.05-3.11.55-1.94.78-1.83-.34,2.3-.63,3.22c0,0-1.19,3.87-1.49,4.41"/><path class="cls-1" d="M32.75,21.85c-.31.54-.6.14-.6.14s-1.3-4.48-1.63-5.12-1.56,4-2,4.81-.73.06-.73.06L26.3,17.05s-.89-3-.33-2.79S27.22,17,27.5,18s.68,2.4.83,2.06,1.41-4.21,1.41-4.21.68-2.26,1-1.64,1.95,5.45,1.95,5.45.14.12.33-.51,1.05-3.11,1.05-3.11.55-1.94.78-1.83-.34,2.3-.63,3.22c0,0-1.19,3.87-1.49,4.41"/><path class="cls-1" d="M39,20.39c.53,1.07,1,1.89,1,1.62a6.81,6.81,0,0,0-.46-2.3s-1.61-4.82-2-5.45-1,1.64-1,1.64-1.27,3.87-1.41,4.21-.54,1.67-.54,1.67.28.72.72-.07,1.73-5.35,2-4.8c.1.18.36.73.69,1.4v0s.17.37,0,.42-.44.08-.6.15,0,.31.6.4,1,1.09,1,1.09"/><path class="cls-1" d="M39,20.39c.53,1.07,1,1.89,1,1.62a6.81,6.81,0,0,0-.46-2.3s-1.61-4.82-2-5.45-1,1.64-1,1.64-1.27,3.87-1.41,4.21-.54,1.67-.54,1.67.28.72.72-.07,1.73-5.35,2-4.8c.1.18.36.73.69,1.4v0s.17.37,0,.42-.44.08-.6.15,0,.31.6.4,1,1.09,1,1.09"/><path class="cls-1" d="M39,20.39c.53,1.07,1,1.89,1,1.62a6.81,6.81,0,0,0-.46-2.3s-1.61-4.82-2-5.45-1,1.64-1,1.64-1.27,3.87-1.41,4.21-.54,1.67-.54,1.67.28.72.72-.07,1.73-5.35,2-4.8c.1.18.36.73.69,1.4v0s.17.37,0,.42-.44.08-.6.15,0,.31.6.4,1,1.09,1,1.09"/><path class="cls-1" d="M3.76,17.69s3.17,1.38,1.09,3.59c-1,1-3.6.82-4.75.77-.19,0-.1-7.83.21-7.83,1.57,0,3.39-.27,3.94,1.55a2.85,2.85,0,0,1-.4,1.7c-.12.14-.19.13-.09.22m-2.57.73-.1.14A6.55,6.55,0,0,0,1,21.2a6.68,6.68,0,0,0,1.84.07c1.78-.5.89-2.33.89-2.33-.66-1.3-2.5-.52-2.5-.52m.05-3.35-.08.1a5,5,0,0,0-.1,2,5,5,0,0,0,1.4.06c1.36-.39.68-1.78.68-1.78-.5-1-1.9-.39-1.9-.39"/><path class="cls-1" d="M3.76,17.69s3.17,1.38,1.09,3.59c-1,1-3.6.82-4.75.77-.19,0-.1-7.83.21-7.83,1.57,0,3.39-.27,3.94,1.55a2.85,2.85,0,0,1-.4,1.7c-.12.14-.19.13-.09.22m-2.57.73-.1.14A6.55,6.55,0,0,0,1,21.2a6.68,6.68,0,0,0,1.84.07c1.78-.5.89-2.33.89-2.33-.66-1.3-2.5-.52-2.5-.52m.05-3.35-.08.1a5,5,0,0,0-.1,2,5,5,0,0,0,1.4.06c1.36-.39.68-1.78.68-1.78-.5-1-1.9-.39-1.9-.39"/><path class="cls-1" d="M3.76,17.69s3.17,1.38,1.09,3.59c-1,1-3.6.82-4.75.77-.19,0-.1-7.83.21-7.83,1.57,0,3.39-.27,3.94,1.55a2.85,2.85,0,0,1-.4,1.7c-.12.14-.19.13-.09.22m-2.57.73-.1.14A6.55,6.55,0,0,0,1,21.2a6.68,6.68,0,0,0,1.84.07c1.78-.5.89-2.33.89-2.33-.66-1.3-2.5-.52-2.5-.52m.05-3.35-.08.1a5,5,0,0,0-.1,2,5,5,0,0,0,1.4.06c1.36-.39.68-1.78.68-1.78-.5-1-1.9-.39-1.9-.39"/><path class="cls-1" d="M50.57,3.89a16.91,16.91,0,0,0,2.73.87c.26-.09,1.2-4.2,1.2-4.2A3.23,3.23,0,0,0,53.44.29C53,.28,51.36,0,51.36,0A2,2,0,0,0,51,.62c0,.24-.46,3.27-.46,3.27"/><path class="cls-1" d="M33.9,10.38a20.68,20.68,0,0,1,3.87,1.29c.47.44,1.32-2.78,1.32-2.78s0-.24-1.26-.74-3.74-1.1-3.74-1.1a.65.65,0,0,0-.57.81c.1.74.38,2.52.38,2.52"/><path class="cls-1" d="M45,4.46,43.25,5.52s-.62.45-1.09-.42S40.29.62,40.29.62A.55.55,0,0,1,40.85.1c.56,0,2.56,0,2.56,0l.35.48s1,2.64,1.45,3-.21.94-.21.94"/><path class="cls-1" d="M61.11,5s-3,1.79-3.25,1.85-.44.51-.44.51l1.36,2.26s.44.23.67,0,3.13-1.88,3.13-1.88.26-.06,0-.57S61.11,5,61.11,5"/><path class="cls-1" d="M54.51,24.2,55,27.12a1.22,1.22,0,0,1-.89.46,9.32,9.32,0,0,0-2.25.74l-.5-2.21-.23-1.49,2.21-.26Z"/><path class="cls-1" d="M41.56,11.83l2.1.78.36-.42s1-3.6,6.49-3c0,0,6.66,1.56,3.36,8.89,0,0-.36.48.18.6a8.39,8.39,0,0,1,1.68.84s.48-.36.54-.66S58.91,14.24,56,10L54.65,8.77l.24-.48L55,7.87l-3.3-1.08a1.64,1.64,0,0,1-1.08-.3c-.42-.36-6.37-2-9,3.18l.6.48Z"/><path class="cls-1" d="M59.3,20.05a14.37,14.37,0,0,1-1.58,1.77c-.35.21.33.58.33.58l3,2.29.55,0,.74-2.42Z"/><path class="cls-1" d="M5.33,24.76l0-.1,0,0,0-.06v0s0,0,0,0l-.06,0,0,0,0,0v0l-.09-.09,0,0H5a.61.61,0,0,0-.3-.12h0l-.07,0,0,0-.06,0h-.1a.17.17,0,0,1-.11.08h0l0,0H4.14a1,1,0,0,1-.15.1l0,0v.08l-.08,0,0,0a.18.18,0,0,1,0,.07v.06l-.05,0h0l0,.11,0,0a.55.55,0,0,1-.06.24.2.2,0,0,0,0,.11l0,0v.08l0,0v.05l0,0a.32.32,0,0,0,.17.06l.15,0,0,0h.05l.1,0,.12,0a.09.09,0,0,1,.06,0,.34.34,0,0,1,.14,0l.07,0h.06l0,0h.15a.1.1,0,0,1,.08,0l0-.1,0,0,0,0,0,0h0l.06,0,.1-.1,0,0,0-.05,0,0v0Zm.26,0,0,.07,0,.12,0,0a.21.21,0,0,1-.11.18h0l-.21.14-.07,0-.1.11H4.94l0,0-.07,0-.18.09-.05,0a.11.11,0,0,1-.08.05h0l-.07.05H4.36l0,0H4.19l-.17,0H3.84l0,0-.14,0-.06,0H3.54v0l-.07-.07-.09,0,0-.11v-.08l0,0v-.16l0-.14v-.08l0,0v-.06l0-.05v0l0,0v0l0,0,0,0,.05,0,.07-.14.14-.2,0,0,0-.05,0,0V24h0A.24.24,0,0,1,4,24l0,0,.18,0h.55v0h0a0,0,0,0,0,0,0s0,0,.08,0l0,0H5l.24.1,0,.07,0,0,.06,0,.09.15.06.08a1.08,1.08,0,0,1,.09.26Z"/><path class="cls-1" d="M7.8,25.46s0,.06-.07.1h0l0,0-.06,0s0,0,0,0h0a.38.38,0,0,1-.19,0h0l-.09,0,0,0-.14-.11,0-.09,0-.05s0,0,0-.05l0-.07v-.08H7a.52.52,0,0,0,0-.11L7,25,6.93,25h0v.07l-.06,0,0,.08,0,.06s0,0,0,0h0l-.12.13h0l-.06.07-.07,0,0,0-.08,0-.12,0-.07,0a.11.11,0,0,1-.1-.07H6a0,0,0,0,1,0,0v0l-.06-.05v0l0-.1h0v0h0s0-.06,0-.08v-.09l0-.07a.06.06,0,0,0,0-.05s0,0,0,0l0,0v-.15l0-.23a.69.69,0,0,0,0-.16c0-.08.06-.12.15-.13l0,0h0l.06.07,0,.09v.27l0,0v0l0,.06v0h0v0a.34.34,0,0,1,0,.1v.17a.13.13,0,0,1,0,.1v0a.45.45,0,0,1,0,.08l0,0,0,0s0,0,0,0v0h.06v0l.06,0v0l.08,0h0l.07-.05c0-.05,0-.08.09-.09A.23.23,0,0,1,6.73,25l0-.06h0l0,0,0-.05.07,0h0l0,0v0H7A.16.16,0,0,1,7,24.63l0-.12,0-.06v0h0a.38.38,0,0,0,.06-.13h.1l.08.07,0,.06,0,.15-.05.07,0,.13,0,0v.06l0,0v.06l0,0,0,.12v.15h0v.09l0,.06,0,0v0h.2l.09-.05h.07c.07,0,.11,0,.11.09"/><path class="cls-1" d="M9.34,24.36l0,.11-.13,0-.07.05,0,0-.05,0-.06,0,0,0h0l-.07,0,0,.06h0l-.08.08,0,.08h0a.51.51,0,0,1,0,.09h0l0,.05,0,0v.05h0v.06h0l0,0-.05,0v0l0,.06,0,.05-.05.06a.11.11,0,0,1,0,0h0v.05l.06.07,0,.08-.05,0-.09.05-.13-.06v-.08l0,0v-.22a.08.08,0,0,1,0-.12.8.8,0,0,1,0-.11h0V25l0,0v-.15a.15.15,0,0,0,0-.07v-.08l0,0V24.4a.07.07,0,0,1,0-.06s.05-.08.15-.12l.09,0,0,.07,0,0v.1s0,.1,0,.15v.1a.06.06,0,0,1,0,0v.19h0v0a.05.05,0,0,0,0,0v-.05s0,0,0,0l0-.06.05,0v-.05l0,0,0-.05a.24.24,0,0,1,.09-.06h0l0-.05h0l0,0,0,0,0,0h0l0,0v0l0,0,.06,0,.08,0h.2c.06,0,.09,0,.1.09"/><path class="cls-1" d="M11.36,25.19h0v0l0-.06,0,0,0,0v0l0-.06v0l-.05-.09-.05,0,0-.06,0,0-.06-.07H11l0-.06h0l0-.05h-.09l0,0h0v0H10.7v.11l0,0,0,0,0,.09v.05l0,.1a.42.42,0,0,0,0,.12v0h0l0,0,0,0,0,.05v.14h.11l.06,0H11l.06,0h.05l.08,0,.05,0h0l.06-.07v0h0v0l0,0Zm.27-.05,0,.11,0,.07v.07l0,.05h0v.07h-.07a.39.39,0,0,1-.1.08h0l0,0h0l-.07,0-.08,0h0l-.1,0-.09,0,0,0h-.08l0,0h0v0s0,.05,0,.07v.06l0,0s0,.09,0,.11v.23l0,0,0,.05,0,0h0v.08a.07.07,0,0,1,0,.06l0,0,0,0v.14c0,.17,0,.25-.11.25l-.12,0v-.11l0-.15,0-.06V26.3l0-.05,0-.08,0,0,0-.07,0-.07,0,0s0,0,0,0l0,0v0a.52.52,0,0,1,0-.11l0,0v0l0,0,0,0,0-.11,0-.14,0-.05,0-.06,0,0,0-.07,0,0v-.05l0-.08h0v-.07l0-.05,0-.06,0-.05v-.23l-.13.05v0h0l0,0h0l-.05.06,0,0,0,0C10,24.6,10,24.55,10,24.5a.07.07,0,0,1,0-.06v-.06a.35.35,0,0,1,.18-.06l0,0,.11-.05,0,0h.12l0-.12h.09l0,.09,0,0,.07.05a.11.11,0,0,1,.08,0l0,0h0l0,0h0v0l.08,0,0,0,.07,0,.05.06.08.05h0l.07,0v0a.1.1,0,0,1,0,0l0,0,0,0h0v.07l0,0v0h0a.25.25,0,0,0,0,.13v0l0,0V25l0,.06v.08Z"/><path class="cls-1" d="M13.24,24.36l0,.11-.12,0-.08.05,0,0-.05,0-.05,0,0,0h0l-.07,0,0,.06h0l-.09.08,0,.08h0a.46.46,0,0,0,0,.09h0l0,.05,0,0v.05h0v.06h0l0,0-.05,0v0l0,.06,0,.05,0,.06v0h0v.05l.06.07,0,.08,0,0-.1.05L12,25.72v-.16a.32.32,0,0,1,0-.08v-.09a.1.1,0,0,1,0-.12.66.66,0,0,0,0-.11h0V25l0,0,0,0,0-.05a.35.35,0,0,0,0-.06.14.14,0,0,0,0-.07l0,0,0-.06,0,0,0-.06,0,0V24.4a.14.14,0,0,1,0-.06s.05-.08.16-.12l.08,0,0,.07,0,0v.1a.89.89,0,0,0,0,.15v.06a.1.1,0,0,1,0,0,.08.08,0,0,1,0,0V25a.08.08,0,0,0,0,0l0-.05a0,0,0,0,1,0,0v-.06l.05,0v-.05l0,0,0-.05.09-.06h0l0-.05h.05v0l0,0,0,0h0l0,0v0l0,0,.06,0,.09,0h.19c.06,0,.1,0,.1.09"/><path class="cls-1" d="M14.24,25.15c0,.05,0,.09,0,.1l0,0v0l-.06,0a.22.22,0,0,1-.07.09h0l0,.05h0a.13.13,0,0,1-.11.07l0,0a.21.21,0,0,1-.11,0h0l0,0h-.07l-.05,0-.15-.11-.06-.13v-.22l0-.31h0s0-.07,0-.1a.53.53,0,0,1,0-.13v-.08s0,0,0-.05l0-.06v-.09h0a.14.14,0,0,1,0-.07h0v0a.35.35,0,0,0,0-.06c0-.06,0-.09.1-.08h0l.05,0a.11.11,0,0,1,.1.08h0a.25.25,0,0,1,0,.08.07.07,0,0,1,0,.05l0,.17,0,.05a.15.15,0,0,1,0,.11v.05l0,.13a1.23,1.23,0,0,1,0,.13v.09l0,.05v.18l.06,0h.07l.05,0,0,0v0h0v0h0l0,0h0v0h0v0l0,0,.06,0a.27.27,0,0,1,.16-.05h0a.1.1,0,0,1,.05.06m-.36-1.86a.09.09,0,0,1-.06.08h0a.27.27,0,0,1-.11.09l-.05.06,0,0-.08,0,0,0-.06,0-.09.09-.06-.06v-.09l0-.06a.09.09,0,0,1,.06-.08v0h0v-.05l.06,0v0h0a.17.17,0,0,1,.06-.1h0l0,0,0-.08c.15,0,.23.09.23.17"/><path class="cls-1" d="M15.54,24.55h0l0-.05,0-.06a.13.13,0,0,1-.06-.05h0l-.06,0h-.16l-.08,0,0,0H15a.28.28,0,0,1-.09.1l0,.06,0,0,0,.05,0,.12,0,0v.06l0,0v.09l-.05.11v.15l0,0,0,0,0,0,0,.07,0,0v0h.05l0,0h0l.06,0v0l.07,0v0l0,0h0l.09-.09,0,0,0-.05h.05l.05-.07h0l0,0,0-.07,0,0,0-.08.06,0,0-.05h0v-.07l.05,0Zm.53.86-.05.15,0,0s-.08.08-.11.08a.17.17,0,0,1-.11-.06l-.07-.1,0-.06V25.4l0-.11v-.38l-.09.12h0l-.06.1-.1.1-.07.1-.08.08a.31.31,0,0,1-.07.09l-.07,0,0,.06-.08,0,0,0-.08,0-.06,0h0v0h-.11l-.13-.1a.33.33,0,0,1-.07-.13h0l0,0,0-.07,0,0,0,0,0-.05v-.07l0-.1V25l0,0v-.07l0-.05v-.05h0v0l0-.06v-.05l0,0v-.11l0-.07,0,0v0l0-.05a.2.2,0,0,1,0-.08l.09,0,.06-.06.16,0h.08v0h.08l0,0h0l0,0h.08l0,0h0v0h0l.07,0,0,.06.07.05,0,0h0l0-.05,0,0V24l0-.06,0,0v-.22l0,0,0,0v0a.24.24,0,0,0,0-.13h0l0-.06h.09a.15.15,0,0,1,.08,0s.06.07.06.17h0v0l0,0,0,.06,0,.07,0,0a.07.07,0,0,1,0,.05.11.11,0,0,1,0,.05l0,0a.07.07,0,0,1,0,.05.19.19,0,0,1,0,.07,2.06,2.06,0,0,1,0,.27v0a.13.13,0,0,1,0,.06v0a.38.38,0,0,1,0,.1v.1l0,0v0l0,.05,0,0,0,.11,0,.08V25a.43.43,0,0,0,0,.05,0,0,0,0,1,0,0l0,0,0,.07,0,.07v.07h0l0,0H16Z"/><path class="cls-1" d="M17.17,24.36a.1.1,0,0,0,0,0h-.07l0,0h0l-.06.07,0,0-.06.1,0,0a.16.16,0,0,1-.05.1v0a.12.12,0,0,1,.09,0h0v0h.05l0,0h0l0,0v-.06h0v0l0,0h0v0l.05-.06v-.05m.35,1a.17.17,0,0,1-.06.11.19.19,0,0,1-.05.09h0l0,.07h-.07l-.06,0,0,.07h0l-.06,0,0,0h0a.12.12,0,0,0-.09.06l-.05,0h-.18l0,0a.19.19,0,0,1-.16-.1h0l-.05,0,0-.06,0,0v-.05l0-.16v-.25l0-.06v0l0-.05h0a.25.25,0,0,1,0-.07h0v-.09a.14.14,0,0,1,.05-.1v0a.18.18,0,0,0,0-.06.18.18,0,0,1,0-.06.29.29,0,0,1,0-.09.09.09,0,0,0,.08,0h0l0,0a.53.53,0,0,1,.08-.15h0a.27.27,0,0,1,0-.08h0v0h0l0,0,.08,0,0-.05h0l0,0,.12,0h.09l.09.05.06.05h0a.22.22,0,0,1,.08.18v.15l0,0,0,.09-.07.08v.05a1,1,0,0,1-.21.13s0,.05-.1.05h0l-.06,0h-.06l-.08,0-.07,0h0a.45.45,0,0,0,0,.08l0,0v0l0,.06a.66.66,0,0,1,0,.11h0s0,.06,0,.07h0s0,0,0,.05a.09.09,0,0,0,0,0l0,0,.07,0H17l0,0h0l0-.05h0l.09,0a.08.08,0,0,1,0,0v0c.05,0,.08,0,.08-.07a.17.17,0,0,1,.13-.05h0a.22.22,0,0,1,.06.12"/><path class="cls-1" d="M18.27,25.51l-.06.08,0,0,0,0-.05,0,0,0-.06,0-.12.12-.06,0a.27.27,0,0,1-.07.08h0l0,0,0,.05-.09,0h0v0a.25.25,0,0,1,0-.08v0h0a.11.11,0,0,1,.07-.08h0l0-.05,0-.05v0h0v0l0,0,0,0v0h0a.31.31,0,0,1,0-.08l0,0v-.05h0l0,0a.16.16,0,0,1,.13-.07.27.27,0,0,1,.13,0h0l.06,0Z"/><path class="cls-1" d="M21.39,25a.23.23,0,0,1,0,.09v0l0,.12,0,.14,0,.06,0,0,0,.16,0,0v.44l0,.06,0,0v.06l0,0,0,.06,0,0v.06a.8.8,0,0,1-.08.17l0,.09,0,0h0l0,0,0,.06-.06,0a.16.16,0,0,1-.09.09s0,0,0,0h0l-.05,0,0,0h0l0,0h-.06l-.07,0H20.6l-.12,0h0l-.12,0h-.05l0,0L20.11,27,20,27l0,0h-.06l0-.06h0l0-.06-.07,0-.05-.08-.1-.07v-.06l0-.14a.35.35,0,0,1,0-.13v0h0l0-.06h0l0-.05.06-.05,0,0,.1-.07H20a.12.12,0,0,1,.09,0,.12.12,0,0,1,.08.09.09.09,0,0,1,0,.07l-.05,0-.05,0H20l0,.06H19.9l0,0-.05,0v.06l0,.05v0l0,.06.08,0v.05l.1.07h.05l.06.05h.07l0,0h.05l0,0h.17l.11,0h.07l.07,0h.05l0,0,0,0h0l0,0v0s0,0,0,0l.06-.06s0,0,0-.08l0,0v0l0-.06h0v-.14h0v-.1l0-.05s0-.07,0-.09a.17.17,0,0,1,0-.07v-.23l0,0,0-.08v-.29l0,0v-.07l0-.08v-.13l0,.07,0,0,0,0h0v0l0,0h0l-.05,0-.07.08-.09.1h0v0l-.1.08h0l0,0,0,0-.07,0,0,0h-.05l-.07.05-.06,0,0,0h-.05a.2.2,0,0,1-.14.05.21.21,0,0,1-.17-.07l-.07-.11v-.07l0-.13v-.14l0,0,0-.08,0,0v0l0,0V25l0,0v0a.52.52,0,0,1,0-.17v-.18l0-.13v0l0,0,0-.11a.43.43,0,0,0,0-.11l.08,0h.06l0,.07.06,0a.51.51,0,0,0,0,.09l0,.05v0l0,0,0,.08,0,.09,0,0h0l0,.15V25l0,0,0,.13,0,0a.08.08,0,0,0,0,0v0l0,.06,0,.05v.05h0v.05l0,0h0v0l0,0h.1l.05,0a.24.24,0,0,1,.14-.06v-.05l.25-.14v0h0l.05,0,0,0,0,0,.05,0,0,0h0l0,0h0l.06-.07,0-.06a.12.12,0,0,0,.07-.05l.05-.1v-.11h0l0-.07h0a.15.15,0,0,1,0-.06.23.23,0,0,1,0-.09h0l0,0h0s.07-.07.14-.07l.11.1v.09l0,.06,0,.06v0s0,0,0,0v.27l0,0v.07Z"/><path class="cls-1" d="M22.88,24.93v0a.09.09,0,0,1,0-.05v0l0-.07V24.7h0s-.05,0-.05-.06,0,0,0-.07h0l0-.07,0,0-.07,0h0l0,0-.07.08,0,.1-.07,0,0,0h0v.1l-.05,0a.28.28,0,0,0,0,.09l-.06.05h0a.09.09,0,0,1,0,.07l0,.07v.09l0,.09v.22l0,0,.05,0h0l0,0h.09v0h.1l.05,0h0a.17.17,0,0,1,.11-.08v0l.07-.05,0,0,.05,0v-.1l0,0v0l0,0,0-.06a.19.19,0,0,1,0-.07Zm.23-.09,0,.06a.62.62,0,0,1,0,.15l0,0v0l0,0v.05l0,0,0,.09h0l0,0,0,0,0,.07,0,0v0l-.07,0a.21.21,0,0,1-.11.08h0a.16.16,0,0,1-.13.07l-.08,0,0,0h0l-.05,0H22.2l-.06,0H22l-.06-.08-.07-.08v-.06l-.05-.12,0-.05,0-.08,0-.05a.23.23,0,0,1,0-.07.13.13,0,0,1,0-.1s0-.06.05-.12h0v-.12l0,0v-.07a.17.17,0,0,0,0-.1l.07-.1h0v0h0l.06-.06v-.08l.09,0a.14.14,0,0,0,.06-.1h.05a.1.1,0,0,1,.07,0h.09l.1,0,0,0,0,0h0l.05,0h0a1.13,1.13,0,0,1,.11.11v0h0l.07.1.07.16v0Z"/><path class="cls-1" d="M25.33,25.46s0,.06-.06.1h0l0,0-.06,0s0,0,0,0h0a.38.38,0,0,1-.19,0h0l-.08,0-.06,0-.14-.11,0-.09-.05-.05s0,0,0-.05l0-.06v-.09h0a.52.52,0,0,0,0-.11l0-.11-.05.09h-.05v.07l-.06,0,0,.08-.05.06s0,0-.05,0h0l-.12.13h0l-.06.07-.07,0,0,0-.08,0-.12,0-.07,0a.1.1,0,0,1-.1-.07h0a0,0,0,0,1,0,0v0l-.06-.05v0l0-.1h0v0h0a.24.24,0,0,1,0-.08v-.09l0-.07a.06.06,0,0,0,0-.05.06.06,0,0,0,0,0l0,0v-.15l0-.23a.69.69,0,0,0,0-.16c0-.08.06-.12.15-.13l0,0h.05l.06.07,0,.09v.27l0,0v0l0,.06v0h0v0a.34.34,0,0,1,0,.1v.17a.08.08,0,0,1,0,.05.14.14,0,0,1,0,.06h0a.45.45,0,0,1,0,.08l0,0,.05,0s0,0,0,0v0h.06v0l.06,0v0l.08,0h0l.07-.05a.11.11,0,0,1,.09-.09.23.23,0,0,1,.05-.05l0-.06h0l0,0,0-.05.07,0h0l0,0v0h0a.16.16,0,0,1,.06-.08l.05-.12,0-.06v0h0a.38.38,0,0,0,.06-.13h.1l.08.07,0,.06,0,.15-.05.07,0,.13,0,0v.06l0,0v.06l0,0,0,.12v.15h0v.09l0,.06,0,0v0h.2l.09-.05h.07c.07,0,.11,0,.11.09"/><path class="cls-1" d="M26.87,24.36l0,.11-.13,0-.07.05,0,0-.05,0-.05,0,0,0h0l-.07,0-.05.06h0a.59.59,0,0,1-.08.08l-.05.08h0a.46.46,0,0,0,0,.09h-.05l0,.05,0,0v.05h0v.06h0l0,0-.05,0v0l0,.06,0,.05-.05.06a.11.11,0,0,1,0,0h0v.05l.06.07,0,.08,0,0-.1.05-.13-.06v-.08l0,0v-.22a.08.08,0,0,1,0-.12.8.8,0,0,1,0-.11h0V25l0,0v-.14a.15.15,0,0,0,0-.07v-.08l0,0,0-.06,0,0V24.4a.14.14,0,0,1,0-.06s.05-.08.15-.12l.09,0,0,.07,0,0v.1s0,.1,0,.15v.06a.1.1,0,0,0,0,0,.08.08,0,0,1,0,0V25a.05.05,0,0,0,0,0v-.05s0,0,0,0v-.06l.05,0v-.05l0,0,0-.05a.24.24,0,0,1,.09-.06h0l0-.05h0l0,0,0,0,0,0h0l0,0v0l0,0,.06,0,.09,0h.19c.06,0,.09,0,.1.09"/><path class="cls-1" d="M28.92,24.55h0l0-.05,0-.06a.13.13,0,0,1-.06-.05h0l-.06,0h-.16l-.08,0,0,0h-.06a.47.47,0,0,1-.1.1l0,.06,0,0,0,.05v.12l0,0v.06l0,0v.09l-.06.11v.15l0,0,0,0,0,0,0,.07,0,0v0h.05l0,0h0l.06,0v0l.06,0v0l0,0h0l.09-.09,0,0,0-.05h.05l0-.07h0l0,0,0-.07,0,0,0-.08.06,0,0-.05v-.08l.05,0Zm.52.86,0,.15,0,0s-.08.08-.11.08a.17.17,0,0,1-.11-.06l-.07-.1,0-.06,0-.06,0-.11v-.38l-.08.12h0l-.06.1-.1.1-.07.1-.08.08a.31.31,0,0,1-.07.09l-.07,0,0,.06-.08,0,0,0-.08,0-.06,0h0v0H28l-.13-.1a.31.31,0,0,1-.06-.13,0,0,0,0,0,0,0h0l0,0,0-.07,0,0,0,0,0-.05v-.07l0-.1V25l0,0v-.07l0-.05v-.05h0v0l0-.06v-.05l0,0v0l0-.09,0-.07,0,0v0l0-.05a.34.34,0,0,0,0-.08l.09,0,.06-.06.16,0h.08v0h.08l0,0h0l0,0h.08l0,0h0v0h0l.07,0,.05.06.07.05,0,0h0l0-.05,0,0v-.09l0-.14,0-.06,0,0v-.22l0,0,0,0v0a.27.27,0,0,0,0-.13h0l0-.06h.1l.08,0s.05.07.05.17h0v0l0,0,0,.06,0,.07v0a.43.43,0,0,1,0,.05.43.43,0,0,0,0,.05v0a.07.07,0,0,1,0,.05.19.19,0,0,1,0,.07,2.06,2.06,0,0,1,0,.27v0a.13.13,0,0,1,0,.06v0a.38.38,0,0,1,0,.1v.1l0,0v.13l0,.11,0,.08V25a.11.11,0,0,1,0,.05v0l0,0,0,.07,0,.07v.07h0l0,0h.06Z"/><path class="cls-1" d="M30.55,24.36l0,0h-.07l0,0h-.05l-.06.07,0,0-.06.1,0,0a.16.16,0,0,1-.05.1v0a.12.12,0,0,1,.09,0h0v0h.05l0,0h0l0,0v-.06h0v0l0,0h0v0l.05-.06a.43.43,0,0,0,0-.05m.34,1a.17.17,0,0,1-.06.11.19.19,0,0,1,0,.09h0l0,.07h-.07l-.06,0,0,.07h0l-.06,0,0,0h0a.12.12,0,0,0-.09.06l0,0h-.18l0,0a.19.19,0,0,1-.16-.1h0l-.05,0,0-.06,0,0v-.05l0-.16v-.25l0-.06v0l0-.05h0a.25.25,0,0,1,0-.07h0v-.09a.14.14,0,0,1,.05-.1v0a.18.18,0,0,0,0-.06.18.18,0,0,1,0-.06.29.29,0,0,1,0-.09.09.09,0,0,0,.08,0h0l0,0a.53.53,0,0,1,.08-.15h0a.17.17,0,0,1,0-.08h0v0h0l0,0,.08,0,0-.05h0l0,0,.12,0h.09l.09.05.06.05h0a.22.22,0,0,1,.08.18v.15l0,0,0,.09-.07.08v.05a.8.8,0,0,1-.21.13.09.09,0,0,1-.09.05h0l-.06,0H30.2l-.08,0-.07,0h0a.45.45,0,0,0,0,.08l0,0v0l0,.06a.66.66,0,0,1,0,.11h0s0,.06,0,.07h0s0,0,0,.05l0,0,0,0,.07,0h.22l0,0h0l0-.05h0l.09,0a.08.08,0,0,1,0,0v0s.08,0,.09-.07a.13.13,0,0,1,.12-.05h0a.22.22,0,0,1,.06.12"/><path class="cls-1" d="M32.42,25.37l0,.05,0,.09,0,0,0,0h-.07l0,.05H32.1l0,0H32v0h-.18l0,0,0,0h-.15l0,0-.08,0H31.2l-.05,0h-.07q-.12,0-.12-.21v0l.06,0,.09,0,.06,0h0a.08.08,0,0,1,.05.05h0v0h.06l.45,0,.11,0H32l.14,0v0a0,0,0,0,1,0,0h0l-.05,0h0l0,0v0h0l0,0h-.16l0,0,0,0,0,0h0l-.05,0-.11,0,0,0-.13,0v0l-.1-.06,0-.12-.05-.06v-.2a.35.35,0,0,1,.06-.14.07.07,0,0,0,.05-.08h.06a.08.08,0,0,1,.05-.05l.05,0,.22-.09h.11l.12,0,.22,0h0l.07.06v0l.05,0,0,.09v0a.09.09,0,0,1-.1.09.1.1,0,0,1-.09-.06h0l-.05,0,0,0,0,0a.16.16,0,0,0-.09,0,.14.14,0,0,0-.1,0h0l0,0h-.07l0,0h0l0,.05,0,0a.31.31,0,0,0,0,.08s0,.05,0,.06l.05,0h0l0,0,.09,0h.07l0,0h.08l0,0,.13,0,0,0v0a.3.3,0,0,1,.13,0h.06v0h0l.1.06a.15.15,0,0,0,.08.08l0,0v0a.19.19,0,0,1,0,.07Z"/><path class="cls-1" d="M33.78,24.4s0,0-.06.06a.09.09,0,0,1,0,0l-.07,0-.08,0a.26.26,0,0,1-.14,0h0l0,0h-.1l-.06,0H33v.6l0,.11s0,0,0,0,0,0,.08,0v0h0l0,0,0,0h0l.06,0,.06,0a.09.09,0,0,1,.06,0h0a.2.2,0,0,1,.11-.09.21.21,0,0,1,.13.05v0a.16.16,0,0,1-.09.16.17.17,0,0,1-.13.09l0,0h0l-.08,0h-.08l-.06,0h-.05L33,25.61l0,0-.07-.09,0-.05-.07-.17,0-.17v0l0,0,0-.05,0-.08,0,0v-.15l0-.06h0V24.6h-.09l-.06,0h0a.1.1,0,0,1-.11-.11h0l0-.07.06-.06h.14l.06,0h.08v-.07l0-.1,0,0,0-.05V24l0-.05a.13.13,0,0,1,0-.07.08.08,0,0,1,0-.06v-.05l0,0,.12,0a.12.12,0,0,1,.13.1v0a.14.14,0,0,1,0,.06v.06l0,0v.07l0,0,0,.07,0,.08,0,0,0,.07.11,0,.19,0,.16,0h.2c.08,0,.11,0,.11.07"/><path class="cls-1" d="M34.89,25.15c0,.05,0,.09,0,.1l0,0v0l-.06,0a.16.16,0,0,1-.07.09h0l-.05.05h0a.13.13,0,0,1-.1.07s0,0,0,0a.3.3,0,0,1-.11,0h0l0,0h-.08l0,0L34,25.61,34,25.48V25.3l0,0L34,25h0a.38.38,0,0,1,0-.1.4.4,0,0,1,0-.13l0-.08,0-.05,0-.06v-.09h0a.64.64,0,0,1,0-.07,0,0,0,0,0,0,0v0l0-.06a.08.08,0,0,1,.1-.08h0l.05,0a.11.11,0,0,1,.1.08h0a.25.25,0,0,1,0,.08v.05l0,.17,0,.05a.16.16,0,0,1-.05.11l0,.05-.05.13a.39.39,0,0,1,0,.13v.09l0,.05v.18l0,0h.08l0,0,0,0v0h0v0h0l0,0h0v0h0v0l0,0,.07,0a.23.23,0,0,1,.15-.05h0a.1.1,0,0,1,0,.06m-.36-1.86a.1.1,0,0,1-.05.08h0a.36.36,0,0,1-.12.09l0,.06,0,0-.08,0,0,0-.06,0-.09.09,0-.06v-.09l0-.06a.16.16,0,0,1,.06-.08v0h0v-.05l.06,0v0h0a.17.17,0,0,1,.06-.1h0l0,0,0-.08c.16,0,.23.09.23.17"/><path class="cls-1" d="M37.32,25.09a.15.15,0,0,1,0,.08l0,.06,0,.07h0v0s-.06,0-.08.09a.27.27,0,0,1-.08.07l0,0,0,0h0l-.09.05h-.21l0,0-.07-.05s0,0-.06-.06a.22.22,0,0,1-.06-.12h0l0,0h0l0-.06,0-.07v-.08l0,0-.06-.3s0-.08,0-.11h0l0,0,0,0-.13.14,0,.07,0,0L36,25l0,0h0l0,.11,0,0h0l0,0a.11.11,0,0,1-.07.1h0s0,.09-.07.1l0,.05-.1.08a.09.09,0,0,1,0,.06l0,0a.13.13,0,0,1-.1.09h0a.16.16,0,0,1-.12-.08l-.05-.09,0-.09v0h0v0l0-.09,0,0v0l0-.05V25h0l0-.05v-.23h0v0l0,0v-.2l0-.1.07-.1a.37.37,0,0,1,.15.05.11.11,0,0,1,0,.1v0l0,.05,0,.07,0,.14,0,.07v.13l0,0,0,.06,0,0v0l0,0,0,.07v.1l.06-.06s0-.06,0-.07a0,0,0,0,1,0-.05v0l0,0h0v0l.06,0v0l0,0,.14-.15-.12.12h0v0l0-.06,0-.05v0l.05,0v-.06h0v0l0-.05v0h0a.06.06,0,0,1,.07-.07.11.11,0,0,1,.09-.07l0,0h0a.17.17,0,0,1,.1-.06l0,0h.08l0,.05,0,0h0v.08l.06,0,0,.08,0,.08v.1l0,.14V25l0,.08,0,.09a.09.09,0,0,1,0,.06h.07v.07l0,0h0l0,0v0h0s0,0,.08-.07h0v0s0,0,0,0h0v0h0a.1.1,0,0,0,0-.07l0,0v0l0-.05.07,0,.09,0,0,.11h0"/><path class="cls-1" d="M38.49,24.42v0h0l-.11-.08-.07,0h-.09l0,0h-.08l-.08,0,0,0h0l-.08.09,0,.09v0l0,.05-.06,0v0a.28.28,0,0,0,0,.13l0,0v.06l0,0v0h0V25a.15.15,0,0,1,0,.07h0l0,.07v0l0,0,0,.06,0,.05v.07h0l0,0v0h0v0l.2-.17h0l0-.06.06,0,0-.06h0V25h.05l0,0,0,0,.18-.24,0-.05h0l0,0v0l0,0Zm.34-.18,0,.05,0,.08,0,.05v.1h0a.15.15,0,0,1,0,.08h0a.09.09,0,0,1,0,.05v.12l0,0v.05l0,0,0,0V25l0,.06v.05l0,0,0,0-.05.08h0l0,.09h0s0,0,0,0h.06l.05.07,0,.05h0a.41.41,0,0,1,0,.08l-.06.05s0,0-.07.05l-.06,0v0l0,0-.11-.12v-.06a.69.69,0,0,1,0-.13v0l0-.21,0-.15,0-.08-.06.1,0,.09h0l-.05.08-.09.08,0,0-.08.07,0,0-.11.07-.12.13h-.07l0,0a.19.19,0,0,1-.13-.07.25.25,0,0,1-.17-.22h0v-.06l0-.05,0,0v-.07l0-.12h0v0a0,0,0,0,1,0,0s0,0,0,0,0,0,0-.08h0s0,0,0,0v0a.08.08,0,0,1,0-.07l0-.07,0,0,0-.06h0a.17.17,0,0,1,.05-.12v-.07h0s0,0,0,0v0a.37.37,0,0,1,.07-.1.77.77,0,0,0,.09-.13l0,0,0,0h0L38,24l.27,0v0l.08,0a.12.12,0,0,1,.11.05v0l.08.07.06,0,.13,0,0,.09Z"/><path class="cls-1" d="M40.32,24.4s0,0-.06.06a.09.09,0,0,1-.06,0l-.07,0-.07,0a.33.33,0,0,1-.14,0h-.05l0,0h-.09l-.06,0h-.16v.6l0,.11a0,0,0,0,0,0,0s0,0,.08,0v0h0l0,0,0,0h0l.07,0s0,0,.06,0a.09.09,0,0,1,.06,0h0a.17.17,0,0,1,.11-.09.17.17,0,0,1,.12.05v0a.17.17,0,0,1-.08.16.18.18,0,0,1-.14.09l0,0h0l-.09,0h-.07l-.07,0h0l-.12-.06,0,0-.08-.09,0-.05-.08-.17,0-.17v0l0,0,0-.05,0-.08,0,0v-.05l0,0v-.12h0V24.6h-.1l-.06,0h0c-.07,0-.1,0-.1-.11h0L39,24.37l.07-.06h.13l.07,0h.07v-.07l0-.1,0,0V24l0-.05a.11.11,0,0,1,0-.07s0-.05,0-.06v-.05l0,0,.13,0c.07,0,.12,0,.12.1v0a.14.14,0,0,1,0,.06v.18l0,0,0,.07v.08l0,0,0,.07.11,0,.19,0,.15,0h.21c.07,0,.11,0,.11.07"/><path class="cls-1" d="M41.43,25.15c0,.05,0,.09,0,.1l0,0,0,0,0,0a.18.18,0,0,1-.08.09h0l0,.05h0s0,.06-.1.07l0,0-.11,0h0l0,0h-.07l-.06,0-.14-.11-.07-.13v-.22l0-.31h0s0-.07,0-.1,0-.07,0-.13l0-.08s0,0,0-.05l0-.06v-.09h0a.14.14,0,0,1,0-.07h0v0a.18.18,0,0,1,0-.06c0-.06,0-.09.1-.08h0l.05,0a.09.09,0,0,1,.09.08h0a.31.31,0,0,1,0,.08.07.07,0,0,1,0,.05l0,.17,0,.05a.15.15,0,0,1,0,.11v.05l0,.13a1.23,1.23,0,0,1,0,.13v.09l0,.05v.18l.05,0h.08l0,0,0,0v0h0v0h0l0,0h0v0h0v0l0,0,.06,0a.27.27,0,0,1,.16-.05h0a.09.09,0,0,1,.06.06m-.36-1.86a.09.09,0,0,1-.06.08h0a.27.27,0,0,1-.11.09l-.06.06,0,0-.08,0,0,0,0,0-.09.09-.06-.06v-.09l0-.06a.09.09,0,0,1,.06-.08v0h0v-.05l.06,0v0h0a.17.17,0,0,1,.06-.1h0l0,0,0-.08c.15,0,.23.09.23.17"/><path class="cls-1" d="M42.62,24.93v0a.09.09,0,0,1,0-.05v0l0-.07V24.7h0s-.05,0-.05-.06,0,0,0-.07h0l0-.07,0,0-.08,0h0a0,0,0,0,1,0,0l-.07.08,0,.1-.07,0v0h0v.09l0,0a.29.29,0,0,0,0,.09l-.05.05h0a.09.09,0,0,1,0,.07s0,.05,0,.07v.09l0,.09v.22l0,0,0,0h0l0,0H42l0,0h.09l0,0h0a.17.17,0,0,1,.11-.08v0l.07-.05,0,0,.06,0v0l0,0v0l0,0v0l0,0a.18.18,0,0,1,0-.06.1.1,0,0,1,0-.07Zm.23-.09,0,.06a.62.62,0,0,1,0,.15l0,0v0l0,0v.05l0,0,0,.09h0v0l-.05,0,0,.07-.05,0v0l-.07,0a.18.18,0,0,1-.11.08h0a.16.16,0,0,1-.13.07l-.08,0,0,0h0l0,0h-.09l-.06,0h-.15l-.06-.08-.07-.09,0-.05-.06-.12,0-.05,0-.08,0-.05a.23.23,0,0,1,0-.07.11.11,0,0,1,0-.1.31.31,0,0,1,0-.12h0v-.12l0,0v-.07a.17.17,0,0,0,0-.1l.07-.1h0v0h0l0-.06v-.08l.09,0a.14.14,0,0,0,.06-.1h.05a.1.1,0,0,1,.07,0h.1l.09,0,0,0,0,0h0l.06,0h0a1.13,1.13,0,0,1,.11.11v0h0l.07.1.07.16v0Z"/><path class="cls-1" d="M45.35,25.09a.15.15,0,0,1-.05.08l0,.06,0,.07h0v0a.15.15,0,0,0-.08.09.27.27,0,0,1-.08.07l0,0,0,0h0l-.09.05h-.21l0,0-.07-.05s0,0-.06-.06a.22.22,0,0,1-.06-.12h0l0,0h0l0-.06,0-.07v-.08l0,0-.05-.3a.52.52,0,0,1,0-.11h0l0,0,0,0-.13.14,0,.07,0,0L44,25l0,0h0l0,.11,0,0h0l0,0a.11.11,0,0,1-.07.1h0s0,.09-.07.1l0,.05-.1.08a.09.09,0,0,1,0,.06l0,0a.13.13,0,0,1-.1.09h0a.16.16,0,0,1-.12-.08l0-.09,0-.09v0h0v0l0-.09,0,0v0l0-.05V25h0l0-.05v-.23h0v0l0,0v-.3l.06-.1a.37.37,0,0,1,.15.05.11.11,0,0,1,0,.1v0l0,.05v.21l0,.07,0,.07v.06l0,0,0,.06,0,0v0l0,0,0,.07v.1l.06-.06a.07.07,0,0,1,0-.07,0,0,0,0,1,0-.05v0l0,0h0v0l.06,0v0l0,0,.14-.15-.12.12h0v0l0-.06,0-.05v0l0,0v-.06h0v0l.05-.05v0h0a.06.06,0,0,1,.07-.07.11.11,0,0,1,.1-.07l0,0h0a.21.21,0,0,1,.1-.06l0,0h.08l0,.05,0,0h0v.08l.06,0,0,.08,0,.08v.1l0,.14V25l0,.08,0,.09a.06.06,0,0,1,0,.06h.07v.07l0,0h0v0h0s0,0,.08-.07h0v0a.11.11,0,0,1,.05,0h0v0h0a.1.1,0,0,0,0-.07l0,0v0l0-.05.07,0,.1,0,0,.11h0Z"/><path class="cls-1" d="M63.08,15.57l.11-.07.25-.07c.25-.07.2.56.45.5a.71.71,0,0,0,.28-.1c0-.17,0-.4,0-.65A.48.48,0,0,0,64,15c-.11-.06-.21,0-.29-.15s-.08-.38-.23-.34c-.7.19-.81.91-1.52,1.1l-.14,0c0-.36.32-.46.6-.67s.33-.43.64-.56a1,1,0,0,0,.65-.62h0a.66.66,0,0,0-.23,0h0l-.64,0a2,2,0,0,1-.39.58c-.36.31-.6.44-1,.76a8.55,8.55,0,0,1-.93.76l-.54.38a1.09,1.09,0,0,1-.25.1,1,1,0,0,0,0,.32.09.09,0,0,0,0,.05,1.75,1.75,0,0,0,.5.12L61.68,16Z"/><path class="cls-1" d="M64.2,16.56h-.13c-.19,0-.27-.12-.43-.21-.36-.2-.63-.38-1-.27-.09,0-.11.12-.2.14l-1,.28a1.08,1.08,0,0,0-.61.34c1.29.15,3.33.25,3.33.25a4.25,4.25,0,0,0,.09-.53"/><path class="cls-1" d="M60,15.75c.26-.11.31-.32.54-.48A9,9,0,0,0,62,13.74l-.58,0a5.22,5.22,0,0,0-.58.83,1.56,1.56,0,0,1-.76.55l-.2.09c0,.19-.06.39-.08.57a.64.64,0,0,0,.23-.05"/><path class="cls-1" d="M60.11,14.71a2.6,2.6,0,0,0,.44-.92h-.22c-.08.11-.15.22-.25.34s-.08.44-.12.71v0l.14-.15"/><path class="cls-1" d="M63.61,14.36a.23.23,0,0,0,.25.18c.18,0,.16-.29.11-.47s-.08-.08-.16-.1-.24.23-.2.39"/></g></g></svg>