<svg xmlns="http://www.w3.org/2000/svg" viewBox="0 0 14.34 16.93"><defs><style>.cls-1{fill:#23321a;}</style></defs><g id="Layer_2" data-name="Layer 2"><g id="Layer_1-2" data-name="Layer 1"><path class="cls-1" d="M3.36,8.78a1.29,1.29,0,0,0,.21.05c.05,0,.08.1,0,.12h-.1a.15.15,0,0,0,0,.29l.47.13.37-1.57L4.1,7.66c-.2-.18-.47.13-.26.28S4,8,4,8.08s-.08.08-.14.06-.29-.16-.39,0a.17.17,0,0,0,0,.25c.1.05.2,0,.21.11a.09.09,0,0,1-.1.09l-.17-.05c-.13,0-.21.23-.06.27"/><path class="cls-1" d="M5.54,5.17,6,4.2l.14,0-.15.37.13.06-.17.6Zm1-.71a.26.26,0,0,0-.18-.28L6,4.09a.25.25,0,0,0-.3.14l-.42,1,1.11.31Z"/><path class="cls-1" d="M9.69,11.65c-1.16.45-2.76.73-3.27.31a5.75,5.75,0,0,1-.1,2.45c.11-1,0-3.36-.79-4.1a.8.8,0,0,0-.32-.19c0-.15.11-.31.16-.47h0c.06-.15.11-.3.16-.46h0c0-.17.11-.35.16-.54a17.5,17.5,0,0,1,.44,1.94,2.78,2.78,0,0,0,.51,1.18c.43.44,1.86.23,3-.16.06,0,.08,0,0,.06M12.5,3.17a3.1,3.1,0,0,0-4.17.94A3.51,3.51,0,0,0,7.9,6.77c0,.38-.17.45-.36.7s.09.44.27.58c-.09.26-.08.47.21.52a.24.24,0,0,0,.06.25c.1.09.22,0,.3.14.09.63.64.52,1.12.43a2.11,2.11,0,0,1,2,.38,2,2,0,0,0-.89-.3,7.13,7.13,0,0,0-3.11.73,14.43,14.43,0,0,1-.67-1.73c-.1-.35-.15-.47,0-.78A1.43,1.43,0,0,0,7,7.09.16.16,0,0,0,6.74,7s0,.08-.07.12-.14,0-.19-.08-.16-.37-.25-.55.12-.58.16-.85l-1.11-.3a23.72,23.72,0,0,0-.77,2.37A22.31,22.31,0,0,0,4,10.28c-.71.28-1.41.76-1.72.88A4.87,4.87,0,0,1,.39,10a.21.21,0,0,0-.32,0c-.16.22,0,.39.07.54s.08.42.29.64a3.63,3.63,0,0,1,.71,1,1.06,1.06,0,0,0,.26.34A.5.5,0,0,0,2,12.54c.3-.21.48-.46.89-.5a7.61,7.61,0,0,0,2-.41A2.71,2.71,0,0,1,4,12c-.27,1.39-.58,3.36.62,4.43s3.21.15,4.34-.41c1.32-.66,3.9-3,3.65-4.81h0a4.57,4.57,0,0,1,.8-2.71c1.29-1.61,1.48-4-.9-5.37"/><path class="cls-1" d="M5.94,3a4.46,4.46,0,0,1,.37-1A3.7,3.7,0,0,0,6.57.52c.68,1.05-.26,3.2-.26,3.2l-.2-.06A.71.71,0,0,1,5.94,3m0,.93.54.16c.39,0,.63-.39.84-.8a2.51,2.51,0,0,0,.1-1.62A2.28,2.28,0,0,1,7.5,3a2,2,0,0,0,.07-1.31A3.17,3.17,0,0,0,6.29,0a2.14,2.14,0,0,1,0,1.41A.67.67,0,0,0,6.1,1,1.47,1.47,0,0,1,6,2l-.09.21h0a4.53,4.53,0,0,0-.22.68,1,1,0,0,0,.31,1"/></g></g></svg>